<svg xmlns="http://www.w3.org/2000/svg" viewBox="0 0 512 512"><defs/><path fill="#0e9f6e" d="M0 0h512v512H0z"/><g xmlns="http://www.w3.org/2000/svg"><path fill="#fff" d="M350.5 424c0-17.397-14.103-31.5-31.5-31.5H193c-17.397 0-31.5 14.103-31.5 31.5v11.2h189zM414.2 161.5v-21H285.566a31.459 31.459 0 00-19.066-19.066V76.8h-21v44.634a31.459 31.459 0 00-19.066 19.066H97.8v21h26.253L76.8 277c0 28.947 23.553 52.5 52.5 52.5h21c28.947 0 52.5-23.553 52.5-52.5l-47.466-115.5h71.1a31.459 31.459 0 0019.067 19.066V330.65c-20.52 4.2-36.754 20.32-40.938 40.849h102.875c-4.184-20.528-20.417-36.65-40.937-40.85V180.567a31.459 31.459 0 0019.066-19.066h70.886L309.2 277c0 28.947 23.553 52.5 52.5 52.5h21c28.947 0 52.5-23.553 52.5-52.5l-47.466-115.5zm-237.653 105h-73.494l36.747-88.204zm232.4 0h-73.494l36.747-88.204z" data-original="#000000"/></g></svg>