<svg xmlns="http://www.w3.org/2000/svg" viewBox="0 0 512 512">
  <defs/>
  <path fill="#3f83f8" d="M0 0h512v512H0z"/>
  <path xmlns="http://www.w3.org/2000/svg" fill="#fff" d="M335.215 199.139c5.469 5.468 5.469 14.333 0 19.8l-93.92 93.922c-5.47 5.466-14.331 5.466-19.8 0l-44.71-44.712c-5.469-5.466-5.469-14.331 0-19.797 5.466-5.469 14.331-5.469 19.797 0l34.811 34.811 84.022-84.024c5.469-5.466 14.334-5.466 19.8 0zM435.2 256c0 99.053-80.16 179.2-179.2 179.2-99.053 0-179.2-80.16-179.2-179.2 0-99.053 80.16-179.2 179.2-179.2 99.053 0 179.2 80.16 179.2 179.2zm-28 0c0-83.576-67.635-151.2-151.2-151.2-83.576 0-151.2 67.635-151.2 151.2 0 83.576 67.635 151.2 151.2 151.2 83.576 0 151.2-67.635 151.2-151.2zm0 0" data-original="#000000"/>
</svg>
