<svg xmlns="http://www.w3.org/2000/svg" viewBox="0 0 511.991 511">
  <defs/>
  <path fill="#f8f53f" d="M0 0h511.991v511H0z"/>
  <path xmlns="http://www.w3.org/2000/svg" fill="#fff" d="M434.255 203.863a19.024 19.024 0 00-16.381-13.08l-103.458-9.393-40.887-95.725c-3.019-7.033-9.888-11.572-17.533-11.572s-14.517 4.539-17.516 11.572l-40.888 95.725-103.474 9.392a19.08 19.08 0 00-16.381 13.081 19.075 19.075 0 005.556 20.249l78.206 68.575-23.06 101.56c-1.686 7.468 1.212 15.19 7.408 19.668a18.96 18.96 0 0011.17 3.629c3.374 0 6.751-.897 9.767-2.702l89.212-53.342 89.195 53.342a19.038 19.038 0 0020.954-.927c6.196-4.478 9.094-12.2 7.407-19.668l-23.059-101.56 78.206-68.575a19.072 19.072 0 005.556-20.249zM257.713 360.47" data-original="#000000"/>
</svg>
